<?xml version="1.0" encoding="utf-8"?>
<!-- Generator: Adobe Illustrator 23.0.1, SVG Export Plug-In . SVG Version: 6.00 Build 0)  -->
<svg version="1.1" id="Layer_1" xmlns="http://www.w3.org/2000/svg" xmlns:xlink="http://www.w3.org/1999/xlink" x="0px" y="0px"
	 width="643.2px" height="148px" viewBox="0 0 643.2 148" style="enable-background:new 0 0 643.2 148;" xml:space="preserve">
<style type="text/css">
	.st0{display:none;}
	.st1{display:inline;}
	.st2{fill:#FFE81F;}
</style>
<g id="Layer_3" class="st0">
	<rect x="-30.3" y="-69" class="st1" width="700.5" height="423"/>
</g>
<g id="Stars">
	<path class="st2" d="M310.3,53.2v-8V16.6v-8l-8,0L120.7,8.9c-10.5,0-20.2,4.5-27.3,12.7c-5.8,6.7-9.6,15.4-10.2,23.5
		c-1,13.5,2.1,18.4,17.1,35.2c4.3,4.9,8.4,9.5,9.8,11.5c0,0.1,0,0.1-0.1,0.2c0,0,0,0-0.1,0.1l-0.8,0.6H13.7h-8v8v32.1v8h8H76h4.9
		h4.5c28.5,0,42.6,0,50.9-0.6c9.5-0.7,12.5-2.3,17.1-5.1l0.6-0.4c14.3-8.8,21.6-29.8,15.4-44.1c-1.9-4.4-14-19.7-15.4-21.5
		c-3.8-4.8-10.1-12.7-11.1-15c0-0.2,0.1-0.4,0.1-0.5c0.2,0,0.5-0.1,1-0.1l58.9-0.2v79.5v8h8H245h8v-8V53.2h49.3H310.3z M245,45.2
		v87.5h-34.1V45.2L144,45.4c-8.1,0-9.1,6.4-9.1,8.9c0,3,2,6,12.8,19.7c7,8.9,13.5,17.8,14.3,19.7c4.6,10.7-1.4,27.3-12.3,34.1
		c-7.8,4.8-6.5,4.9-64.3,4.9c-3,0-6.1,0-9.4,0H13.7v-32.1h97.9l2.9-2c2-1.4,3.1-3.2,3.5-5.8c0.6-3.7,0.3-4.2-11.8-17.8
		C91.9,58.9,90.4,56,91.1,45.7C92,34,102.4,16.9,120.7,16.9l181.6-0.3v28.6H245z"/>
	<path class="st2" d="M348.5,91.2l39.8,0c0,0,0,0,0,0c0.1,0-19.3-57.2-19.5-57.2C368.7,33.9,348.1,91.2,348.5,91.2z M359.6,83.2
		c2.5-7,5.9-16.7,9-25.3c2.9,8.6,6.2,18.2,8.6,25.3L359.6,83.2z"/>
	<path class="st2" d="M402.9,15L401,9.6h-5.7h-55.2h-5.7l-1.9,5.4l-39.7,115.1l-3.7,10.6h11.2h33.4h5.9l1.8-5.6l3.5-11.1l46.6,0.2
		l3.6,11.8l1.7,5.6l5.9,0l32.8,0.2l11.3,0.1l-3.7-10.7L402.9,15z M402.7,133.6l-5.3-17.4l-58.4-0.3l-5.2,16.8h-33.4l39.7-115.1h55.2
		l40.2,116.2L402.7,133.6z"/>
	<path class="st2" d="M639.6,132.6l-0.6-31.7l-0.1-7.7l-7.7-0.1l-59.4-0.9l-1.2-1c-0.4-0.3-0.9-0.7-1.4-1.2c0.4-0.3,0.9-0.5,1.2-0.7
		c15-9,22.9-23.4,21.6-39.7c-0.9-11-2.8-15.9-9.5-24c-6.6-8-15.6-13.3-25.4-15c-5.5-0.9-32.9-1.1-48.7-1.1h-41.8h-8v8v115.1v8h8h37
		h8l0-8l-0.1-25.2l0.8,0.8c25,23.8,32.4,29.2,37.2,30.8c3.7,1.3,10,1.6,44.2,1.6h38.1h8.2L639.6,132.6z M593.6,132.7
		c-29.4,0-38.9-0.3-41.6-1.2c-4.1-1.4-14.1-9.8-34.3-29l-14.4-13.7l0.2,44h-37V17.6h41.8c25.9,0,43.9,0.4,47.4,1
		c8,1.4,15.2,5.7,20.7,12.2c5.7,6.9,7,10.1,7.7,19.5c1.1,13.3-5.2,24.7-17.7,32.2c-3.6,2.2-7.4,4.3-8.3,4.7
		c-1.4,0.6-1.2,1.3,1.3,4.3c1.6,1.9,4.5,4.7,6.3,6.1l3.4,2.6L631,101l0.6,31.7H593.6z"/>
	<path class="st2" d="M542.3,42.4c-3.2-1.4-6.4-1.6-21.7-1.6h-17.9v28.6h19.7c19.1,0,19.7-0.1,22.5-2.1c4.9-3.7,6.6-7.4,6.1-13.2
		C550.4,48,548.1,44.9,542.3,42.4z M540.1,60.8c-0.1,0.1-0.2,0.1-0.2,0.2c-1.9,0.3-8.8,0.3-17.4,0.3h-11.7l0-12.6h9.9
		c14,0,16.8,0.2,18.5,1c3.2,1.4,3.6,2.1,3.8,5C543.2,57.6,542.9,58.7,540.1,60.8z"/>
</g>
</svg>
