<?xml version="1.0" encoding="utf-8"?>
<!-- Generator: Adobe Illustrator 23.0.1, SVG Export Plug-In . SVG Version: 6.00 Build 0)  -->
<svg version="1.1" id="Layer_1" xmlns="http://www.w3.org/2000/svg" xmlns:xlink="http://www.w3.org/1999/xlink" x="0px" y="0px"
	 width="643.2px" height="148px" viewBox="0 0 643.2 148" style="enable-background:new 0 0 643.2 148;" xml:space="preserve">
<style type="text/css">
	.st0{display:none;}
	.st1{display:inline;}
	.st2{fill:#FFE81F;}
</style>
<g id="Layer_3" class="st0">
	<rect x="-30.3" y="-69" class="st1" width="700.5" height="423"/>
</g>
<g id="Wars">
	<g>
		<path class="st2" d="M122.7,18l8.7,25.5c4.7,13.8,8.9,24.8,9.4,24.8c0,0,0,0,0,0c0.6-0.5,17.6-49.8,17.6-49.8h32.9L151.6,134
			h-22.9c0,0-24.4-70.5-24.3-70.7L79,133.1H56.3L17.2,18l32.7,0c0,0,17.9,50.8,18.2,50.8c0,0,0,0,0,0L86,18L122.7,18 M6,10l3.6,10.6
			l39.2,115.1l1.8,5.4h5.7H79h5.6l1.9-5.3l17.7-48.5c1.5,4.4,3.2,9.2,4.8,14c6.1,17.7,12.2,35.3,12.2,35.3l1.9,5.4h5.7h22.9h5.7
			l1.9-5.4L198.9,21l3.6-10.6h-11.2h-32.9h-5.7l-1.9,5.4c-3,8.6-6.9,20-10.3,29.7c-0.5-1.5-1-3-1.6-4.6l-8.7-25.5l-1.8-5.4h-5.7H86
			h-5.7l-1.9,5.3L68,45c-3.5-9.7-7.5-21-10.5-29.7L55.6,10l-5.7,0l-32.7,0L6,10L6,10z"/>
	</g>
	<g>
		<path class="st2" d="M629.2,17.5l-0.1,30.3c0,0-32.6-0.1-49.2-0.1c-5.5,0-9.3,0-9.4,0c-2.9,0.5-4.7,6.6-3.9,9.3
			c0.4,1.4,3.4,5.8,6.6,9.8c3.2,4.1,8.5,10.7,11.8,14.7c8.3,10.4,9.5,12.4,10.2,18.4c1.2,9.7-3.3,20.2-11.8,27.1
			c-8.5,6.9-8.1,7-71.4,7c-0.9,0-1.8,0-2.8,0c-38.5,0-58.8-0.3-61.8-1c-5.3-1.2-13.6-8-35.8-29.3c-8-7.6-15.3-14.3-15.7-14.3
			c0,0,0,0,0,0l-0.3,44.6l-35.9-0.2l-0.2-115h45.3h34.8c24.1,0.9,40.5,24.9,37.2,40.2c-0.7,3.5-2.6,8.5-4.2,11.2
			c-3.2,5.5-11.4,12.6-18,15.6c-2.4,1.1-4.4,2.4-4.4,2.9c0,1.7,8.1,9.6,11.1,10.9c2.6,1.1,10.1,1.3,43.2,1.3c3.9,0,7.4,0,10.6,0
			c33.3,0,31.6-0.2,34.2-5.7c1.8-3.8,0.4-6.1-12.2-20.4c-16.1-16-14.4-23.6-14.5-29.3c-0.2-6.8,5.1-28.1,32.8-28.1L629.2,17.5
			 M414.2,70.6c15.4,0,18.5-0.2,21.8-1.7c11-4.8,11.6-19,1-25.3c-2.3-1.4-5.3-1.6-22-1.7l-19.3-0.1c0.2,0.1-0.1,27.6-0.1,27.6
			S400.5,70.6,414.2,70.6 M637.3,9.5h-8h-73.8c-16,0-25.5,6.3-30.6,11.6c-8.3,8.6-10.3,19.5-10.2,24.6c0,0.4,0,0.9,0,1.3
			c-0.1,8.3,1.2,17.8,16.7,33.2c3.1,3.5,8.2,9.2,10.1,12.1c-4.2,0.5-15,0.5-26.3,0.5h-4.8l-5.8,0c-19.9,0-36.7-0.1-40.1-0.7
			c-0.5-0.3-1.2-0.9-1.9-1.5c6.9-4.2,13.8-10.8,17.1-16.4c2-3.4,4.2-9.2,5.1-13.6c2-9.6-1.3-21.2-9-31.1c-9-11.5-22-18.3-35.7-18.8
			l-0.1,0h-0.1h-34.8h-45.3h-8l0,8l0.2,115l0,7.9l7.9,0l35.9,0.2l8,0l0-8l0.2-26.7c0.7,0.7,1.5,1.4,2.3,2.2
			c24.2,23.2,32.4,29.7,39.6,31.3c2,0.4,5.3,1.2,63.5,1.2h2.8c31.5,0,47.4,0,56.8-0.9c10.8-1,14.3-3.5,19.5-7.7l0.2-0.1
			c10.7-8.7,16.3-21.8,14.7-34.3c-1-8.1-3.2-11.5-11.9-22.4l-2.6-3.2c-3-3.8-6.7-8.4-9.2-11.5c-2-2.5-3.5-4.7-4.5-6.1
			c1.2,0,2.8,0,4.9,0c16.4,0,48.9,0.1,49.2,0.1l8,0l0-8l0.1-30.3L637.3,9.5L637.3,9.5z M403.7,62.3c0-2,0-4.3,0-6.6c0-2,0-4,0-5.8
			L415,50c6.4,0,16.1,0.1,18,0.6c2.4,1.5,3.8,3.7,3.6,6.1c-0.1,1.3-0.7,3.6-3.8,5c-1.8,0.8-4.5,1-18.6,1
			C409.7,62.6,406.3,62.5,403.7,62.3L403.7,62.3z"/>
	</g>
	<g>
		<path class="st2" d="M286.9,17L327.2,133l-32.8,0.1l-5.5-17.4l-58.7-0.5l-5.2,17.4l-32.5-0.3l39.8-115.2L286.9,17 M260.5,34
			c-0.1,0.3-5.1,14.2-10.2,28.1c-5.1,14-10.3,28-10.3,28.1c0,0,0,0,0,0l0,0c0,0,0,0,0,0c0.1,0,18.3-0.1,30-0.1c5.5,0,9.5,0,9.5,0
			c0,0,0,0,0,0s0,0,0,0c0,0,0,0,0,0C279.3,89.7,260.6,34.7,260.5,34C260.5,34,260.5,34,260.5,34L260.5,34
			C260.5,34,260.5,34,260.5,34 M292.6,9l-5.7,0l-54.6,0.1l-5.7,0l-1.9,5.4L185,129.7l-3.6,10.5l11.1,0.1l32.5,0.3l6,0.1l1.7-5.8
			l3.5-11.7l46.9,0.4l3.7,11.8l1.8,5.6l5.9,0l32.8-0.1l11.2-0.1l-3.7-10.6L294.5,14.4L292.6,9L292.6,9z M251.5,82.2
			c1.5-4.1,3.6-9.7,6.3-17.3c0.9-2.4,1.7-4.6,2.4-6.5c0.7,2,1.4,4.1,2.2,6.4c0.6,1.9,3.5,10.3,5.9,17.4
			C261,82.2,255.6,82.2,251.5,82.2L251.5,82.2z"/>
	</g>
</g>
</svg>
